<?xml version="1.0" encoding="UTF-8"?>
<svg id="Layer_1" data-name="Layer 1" xmlns="http://www.w3.org/2000/svg" viewBox="0 0 466.29 90.45">
  <defs>
    <style>
      .cls-1 {
        fill: #fff;
      }
    </style>
  </defs>
  <path class="cls-1" d="M466.29,88.58c-81.05-16.74-156.54-9.3-234.08-3.88-76.93,5.95-155.9,9.88-229.75-1.73.82-.15,1.64-.31,2.45-.47,74.34,10.95,153.14,5.97,228.98-1.3,76.46-6.79,149.97-15.88,227.96-2.02,1.5,3.15,2.98,6.28,4.43,9.4Z"/>
  <path class="cls-1" d="M466.14,73.6c-154.38-24.97-309.76,28.71-466.14.61,1.79-1.39,3.58-2.8,5.35-4.23,154.28,24.29,307.38-31.26,459.31-9.13.5,4.26,1,8.51,1.49,12.75Z"/>
  <path class="cls-1" d="M12.53,19.1c.72.12.9.12,1.38.12,3.96,0,6.06-.54,7.92-2.1,1.56-1.38,2.28-2.94,2.28-4.8,0-4.32-3.42-7.2-8.34-7.2-.6,0-1.38.06-2.28.12l-.96.06v13.8ZM12.47,39.32c2.76.54,4.14.72,5.82.72,6,0,10.56-3.9,10.56-9.18,0-3.66-2.34-6.72-5.64-7.62-1.74-.36-4.26-.6-7.44-.6-.9,0-1.68.06-3.3.12v16.56M5.57,42.2c.12-.3.3-.72.48-1.2.06-.42.12-.66.12-.84l.06-34.38c0-1.8-.48-2.58-2.58-4.56h10.14c5.46,0,8.46.42,11.52,1.62,3.72,1.56,5.94,4.68,5.94,8.52,0,1.86-.6,3.54-1.62,4.86-.84,1.08-1.68,1.62-3.78,2.58,2.82.6,3.96,1.02,5.46,2.22,2.76,1.98,4.2,5.28,4.2,9.06,0,3.3-1.32,6.72-3.6,9.24-3.72,4.02-7.98,5.16-19.02,5.16H3.29c1.32-.96,1.86-1.5,2.28-2.28"/>
  <path class="cls-1" d="M39.47,43.1c.42-.54.84-1.98.84-2.88v-1.32l-.06-30.34c-.06-2.46.97-3.84,1.87-4.67,0,0,2.02-2.08,5.17-2.05.24,0-1.16.86-1.15,5.08v31.98c0,.72.12,2.1.36,2.94.24,1.02.6,1.62,1.92,2.64h-10.38c.66-.54,1.2-.96,1.44-1.38Z"/>
  <path class="cls-1" d="M247.45,43.1c.42-.54.84-1.98.84-2.88v-1.32l-.06-30.34c-.06-2.46.97-3.84,1.87-4.67,0,0,2.02-2.08,5.17-2.05.24,0-1.16.86-1.15,5.08v31.98c0,.72.12,2.1.36,2.94.24,1.02.6,1.62,1.92,2.64h-10.38c.66-.54,1.2-.96,1.44-1.38Z"/>
  <path class="cls-1" d="M111.26,43.1c.42-.54.84-1.98.84-2.88v-1.32l-.06-30.34c-.06-2.46.97-3.84,1.87-4.67,0,0,2.02-2.08,5.17-2.05.24,0-1.16.86-1.15,5.08v31.98c0,.72.12,2.1.36,2.94.24,1.02.6,1.62,1.92,2.64h-10.38c.66-.54,1.2-.96,1.44-1.38Z"/>
  <path class="cls-1" d="M59.57,13.82c1.92-.54,2.58-.66,4.5-.66,2.04,0,4.08.24,5.7.72,1.32.3,2.52.96,3.66,1.92,1.92,1.62,2.28,2.52,2.28,6.24v13.92c0,2.46.42,3.48,1.98,4.08.96.48,1.56.54,3.6.54h.6l-3.6,4.44c-.66.12-.96.18-1.44.18-3.78,0-7.38-3-7.38-6.12l.06-2.34v-8.1c-.84.36-1.44.54-1.74.66-.12,0-1.2.24-3.12.66-2.4.42-4.74,1.2-5.94,1.92-1.26.78-2.04,2.22-2.04,3.96,0,3.06,2.58,5.1,6.6,5.1,1.68,0,2.94-.24,5.76-1.08l-3.42,4.62c-2.22.66-3.9.96-5.1.96-5.4,0-10.38-4.86-10.38-10.08,0-4.56,3.36-7.38,10.5-8.64l3.36-.6c3.84-.72,5.46-1.8,5.46-3.96,0-2.4-2.04-3.96-5.22-3.96-.9,0-1.92.12-3.12.42-1.98.36-3.3.84-6.42,1.98l4.86-6.78Z"/>
  <path class="cls-1" d="M104.57,21.02c-.42-.42-.72-.72-.9-.84-1.56-1.2-4.2-1.98-6.54-1.98-5.82,0-9.9,4.62-9.9,11.22s5.1,11.64,12.36,11.64c4.02,0,8.58-1.68,10.5-3.9l-4.62,7.32c-3,.96-4.32,1.14-6.78,1.14-10.38,0-18.12-6.72-18.12-15.78,0-9.6,7.68-16.56,18.24-16.56,2.1,0,3.12.12,5.76.78v6.96Z"/>
  <path class="cls-1" d="M125.75,18.86c1.2-1.26,1.86-2.58,1.86-3.54,0-.6-.18-1.02-.84-1.5h10.02l-11.76,12.9,10.86,12.6c2.76,3.06,3.24,3.54,6,5.16h-7.56c-1.38,0-2.88-.6-3.42-1.38l-1.86-2.34-10.74-13.62,7.44-8.28Z"/>
  <path class="cls-1" d="M141.47,14.12c1.86,0,2.82-.18,5.46-1.14v4.2c.9-.84,1.62-1.38,2.16-1.74,2.04-1.44,5.04-2.34,7.86-2.34,8.52,0,15.36,6.84,15.36,15.42,0,9.12-7.08,16.68-15.78,16.68-1.08,0-2.1-.12-4.08-.6l-3.9-5.1c2.94,1.2,4.2,1.56,6.3,1.56,3.12,0,6.18-1.2,7.8-2.88,1.86-1.98,3.24-5.7,3.24-8.82,0-6.72-4.62-12.12-10.44-12.12-5.34,0-8.46,3.54-8.46,9.66v27.12c0,1.62.06,1.98.36,2.94.3,1.08.66,1.62,2.04,2.64h-10.5c1.26-1.02,1.62-1.5,1.92-2.64.24-.72.3-1.26.3-1.98,0-.24-.06-.6-.06-.96V20.84c-.06-2.28-.24-3.84-.48-4.56-.18-.54-.78-1.26-1.74-2.22.9,0,1.74.06,2.64.06Z"/>
  <path class="cls-1" d="M180.35,29.12c.24,7.02,5.04,12,11.58,12,5.88,0,10.14-5.1,10.14-12.12s-4.74-11.88-10.98-11.88-10.74,4.8-10.74,11.58v.42ZM191.75,12.38c10.02,0,16.74,6.66,16.74,16.74,0,4.98-2.04,9.42-5.94,12.72-2.94,2.52-6.78,3.72-11.7,3.72-10.14,0-16.8-6.6-16.8-16.74s7.26-16.44,17.7-16.44"/>
  <path class="cls-1" d="M216.65,29.12c.24,7.02,5.04,12,11.58,12,5.88,0,10.14-5.1,10.14-12.12s-4.74-11.88-10.98-11.88-10.74,4.8-10.74,11.58v.42ZM228.05,12.38c10.02,0,16.74,6.66,16.74,16.74,0,4.98-2.04,9.42-5.94,12.72-2.94,2.52-6.78,3.72-11.7,3.72-10.14,0-16.8-6.6-16.8-16.74s7.26-16.44,17.7-16.44"/>
  <path class="cls-1" d="M309.1,28.22c.25,7.13,5.12,12.19,11.76,12.19,5.97,0,10.3-5.18,10.3-12.31s-4.81-12.06-11.15-12.06-10.91,4.87-10.91,11.76v.43ZM320.67,11.22c10.18,0,17,6.76,17,17,0,5.06-2.07,9.56-6.03,12.92-2.98,2.56-6.88,3.78-11.88,3.78-10.29,0-17.06-6.7-17.06-17s7.37-16.69,17.97-16.69"/>
  <path class="cls-1" d="M341.69,12.74c2.86,0,3.66-.12,6.82-1.22v21.08c0,2.32.3,3.54,1.04,4.63,1.1,1.64,3.53,2.56,6.52,2.56,2.44,0,4.33-.61,5.85-1.83,1.34-1.22,1.83-2.5,1.83-5.85v-13.53c0-3.17-.24-3.96-2.13-5.85.61.06,1.22.06,1.83.06,2.5,0,3.29-.12,6.34-1.16v26.5c0,1.83,0,1.95.3,2.98.24,1.16.61,1.65,1.77,2.68h-8.29v-2.74c-1.22,1.16-1.64,1.46-3.29,2.25-2.25,1.16-3.78,1.52-6.15,1.52-7.74,0-11.7-4.26-11.7-12.61v-13.34c0-3.53-.3-4.2-2.31-6.15h1.58Z"/>
  <path class="cls-1" d="M376.12,13.05c3.11,0,3.9-.12,7.19-1.1v3.96c.79-.73,1.46-1.34,2.07-1.83,2.01-1.46,4.51-2.25,7.62-2.25,7.37,0,11.64,4.14,11.64,11.33v16.39c0,.42.18.97.3,1.52.3,1.16.73,1.71,1.95,2.74h-10.72c1.28-1.04,1.58-1.52,1.89-2.68.3-.91.36-1.22.36-2.98v-13.22c0-3.23-.3-4.63-1.22-5.85-1.04-1.46-3.05-2.32-5.73-2.32s-5.06.79-6.4,1.95c-1.34,1.34-1.71,2.5-1.71,6.15l.06,13.28c0,.18.06.67.18,1.4.06.49.12,1.03.24,1.52.18,1.04.61,1.71,1.77,2.74h-10.48c1.22-1.04,1.52-1.52,1.77-2.68.24-.85.3-1.64.3-2.92v-19.01c0-3.71-.12-4.26-2.07-6.21.37,0,.67.06.98.06Z"/>
  <path class="cls-1" d="M433.63,19.99c-.43-.43-.73-.73-.91-.85-1.58-1.22-4.26-2.01-6.64-2.01-5.91,0-10.05,4.69-10.05,11.39s5.18,11.82,12.55,11.82c4.08,0,8.71-1.71,10.66-3.96l-4.69,7.43c-3.05.97-4.39,1.16-6.89,1.16-10.54,0-18.4-6.82-18.4-16.02,0-9.75,7.8-16.81,18.52-16.81,2.13,0,3.17.12,5.85.79v7.07Z"/>
  <path class="cls-1" d="M444.35.86c2.13,0,3.9,1.89,3.9,4.27,0,2.19-1.89,3.96-4.21,3.96-2.13,0-3.9-1.77-3.96-3.96,0-2.38,1.89-4.27,4.26-4.27ZM440.88,41.13c.18-.61.24-1.16.24-1.58.06-.12.06-.55.06-1.22v-.18l-.06-18.77c0-4.27-.12-4.69-2.13-6.89.97.12,2.07.19,3.04.19,1.46,0,2.68-.3,5.36-1.16v28.03c0,.36.06.91.25,1.52.36,1.22.73,1.71,2.01,2.74h-10.84c1.34-1.04,1.7-1.52,2.07-2.68"/>
  <path class="cls-1" d="M297.11,9.88c-.58-.4-.98-.63-1.32-.86-2.36-1.5-5.58-2.3-9.16-2.3-10.13,0-17.16,6.79-17.16,16.64,0,4.49,1.5,8.46,4.32,11.4,3.22,3.4,8.81,5.7,13.59,5.7,5.18,0,10.42-1.84,15.72-5.59l-4.72,9.21c-5.24.81-7.43.98-10.65.98-4.09,0-7.43-.46-10.71-1.61-8.12-2.71-13.53-10.6-13.53-19.4,0-6.68,2.94-12.78,8.06-16.93,4.61-3.69,10.25-5.35,18.02-5.35,2.3,0,3.92.17,7.54.98v7.14Z"/>
  <path class="cls-1" d="M454.66,42.23c.43-.55.86-2.03.86-2.95v-1.35l-.06-31.05c-.06-2.52,1-3.93,1.91-4.79,0,0,2.07-2.12,5.29-2.1.24,0-1.19.88-1.18,5.2v32.74c0,.74.13,2.15.37,3.01.25,1.04.62,1.66,1.97,2.7h-10.62c.68-.55,1.23-.98,1.48-1.41Z"/>
</svg>